# xmcd
#
# Track frame offsets:
#	150
#	22027
#	35482
#	52767
#	64290
#	74792
#	95445
#	110657
#	131205
#	149137
#
# Disc length: 2226 seconds
#
# Revision: 1
# Processed by: cddbd v1.4PL0 Copyright (c) Steve Scherf et al.
# Submitted via: audiograbber 1.81.03
#
DISCID=a108b00a
DTITLE=Grant Cook - Loop 323 Blues
DYEAR=1998
DGENRE=Blues
TTITLE0=Loop 323 Blues
TTITLE1=Baby's Seeing Red
TTITLE2=Wonder Why
TTITLE3=Take You Back Home
TTITLE4=Cried My Eyes Out
TTITLE5=You Can't Get There
TTITLE6=Plan B
TTITLE7=I Just Don't Know
TTITLE8=She Don't Wanna Be Alone
TTITLE9=Hungry Shuffle
EXTD=
EXTT0=
EXTT1=
EXTT2=
EXTT3=
EXTT4=
EXTT5=
EXTT6=
EXTT7=
EXTT8=
EXTT9=
PLAYORDER=
